<?xml version="1.0" encoding="utf-8"?>
<!DOCTYPE svg PUBLIC "-//W3C//DTD SVG 1.1//EN" "http://www.w3.org/Graphics/SVG/1.1/DTD/svg11.dtd">
<svg version="1.1" id="Layer_1" xmlns="http://www.w3.org/2000/svg" xmlns:xlink="http://www.w3.org/1999/xlink" x="0px" y="0px"
	 viewBox="0 0 512 512" enable-background="new 0 0 512 512" xml:space="preserve">
<path fill="#949597" d="M451.7,99.7l-71.4-71.4C364.7,12.7,334,0,312,0H72C50,0,32,18,32,40v432c0,22,18,40,40,40h368
	c22,0,40-18,40-40V168C480,146,467.3,115.3,451.7,99.7z M224,220.1c-8.5,0-16.5,3-22.6,8.4c-6.1,5.4-9.4,12.5-9.4,20.1v57.1
	c0,7.9-7.2,14.3-16,14.3c8.8,0,16,6.4,16,14.3v57.1c0,7.6,3.3,14.7,9.4,20.1c6.1,5.4,14.1,8.4,22.6,8.4v28.6
	c-35.2,0-64-25.7-64-57.1v-42.8c0-7.9-7.2-14.3-16-14.3h-16v-28.6h16c8.8,0,16-6.4,16-14.3v-42.8c0-31.4,28.8-57.1,64-57.1V220.1z
	 M384,334.3h-16c-8.8,0-16,6.4-16,14.3v42.8c0,31.4-28.8,57.1-64,57.1v-28.6c8.5,0,16.5-3,22.6-8.4c6.1-5.4,9.4-12.5,9.4-20.1v-57.1
	c0-7.9,7.2-14.3,16-14.3c-8.8,0-16-6.4-16-14.3v-57.1c0-7.5-3.3-14.7-9.4-20.1c-6.1-5.4-14.1-8.4-22.6-8.4v-28.6
	c35.2,0,64,25.7,64,57.1v42.8c0,7.9,7.2,14.3,16,14.3h16V334.3z M352,128V46.3c2.2,1.5,4.1,3.1,5.7,4.6l71.4,71.4
	c1.6,1.6,3.1,3.5,4.6,5.7H352z"/>
</svg>
